<?xml version="1.0" encoding="windows-1252"?>
<!-- Generator: Adobe Illustrator 19.0.0, SVG Export Plug-In . SVG Version: 6.00 Build 0)  -->
<svg version="1.1" id="Capa_1" xmlns="http://www.w3.org/2000/svg" xmlns:xlink="http://www.w3.org/1999/xlink" x="0px" y="0px" viewBox="0 0 512 512" style="enable-background:new 0 0 512 512;" xml:space="preserve">
<g>
	<path style="fill:#F0F3F4;" d="M52.966,0h406.069C488.287,0,512,23.713,512,52.966v406.069C512,488.287,488.287,512,459.034,512   H52.966C23.713,512,0,488.287,0,459.034V52.966C0,23.713,23.713,0,52.966,0z"/>
	<g>
		<circle style="fill:#FAEDBD;" cx="66.207" cy="66.207" r="22.069"/>
		<circle style="fill:#FAEDBD;" cx="445.793" cy="66.207" r="22.069"/>
		<circle style="fill:#FAEDBD;" cx="66.207" cy="445.793" r="22.069"/>
		<circle style="fill:#FAEDBD;" cx="445.793" cy="445.793" r="22.069"/>
	</g>
	<path id="SVGCleanerId_0" style="fill:#FAEDBD;" d="M229.517,370.759h52.966c9.751,0,17.655,7.905,17.655,17.655v35.31   c0,9.751-7.905,17.655-17.655,17.655h-52.966c-9.751,0-17.655-7.904-17.655-17.655v-35.31   C211.862,378.663,219.767,370.759,229.517,370.759z"/>
	<path id="SVGCleanerId_1" style="fill:#FAEDBD;" d="M298.832,70.621h-85.663c-4.901,0-9.582,2.037-12.922,5.624   c-3.34,3.587-5.039,8.401-4.689,13.289l15.133,211.862c0.66,9.239,8.348,16.398,17.611,16.397h55.398   c9.263,0,16.95-7.158,17.61-16.397l15.133-211.862c0.349-4.888-1.349-9.702-4.689-13.289   C308.413,72.658,303.733,70.621,298.832,70.621z"/>
	<path style="fill:#F4CD1E;" d="M52.966,0h406.069C488.287,0,512,23.713,512,52.966v406.069C512,488.287,488.287,512,459.034,512   H52.966C23.713,512,0,488.287,0,459.034V52.966C0,23.713,23.713,0,52.966,0z"/>
	<g>
		<circle style="fill:#FAEDBD;" cx="66.207" cy="66.207" r="22.069"/>
		<circle style="fill:#FAEDBD;" cx="445.793" cy="66.207" r="22.069"/>
		<circle style="fill:#FAEDBD;" cx="66.207" cy="445.793" r="22.069"/>
		<circle style="fill:#FAEDBD;" cx="445.793" cy="445.793" r="22.069"/>
	</g>
	<g>
		<path id="SVGCleanerId_0_1_" style="fill:#FAEDBD;" d="M229.517,370.759h52.966c9.751,0,17.655,7.905,17.655,17.655v35.31    c0,9.751-7.905,17.655-17.655,17.655h-52.966c-9.751,0-17.655-7.904-17.655-17.655v-35.31    C211.862,378.663,219.767,370.759,229.517,370.759z"/>
	</g>
	<g>
		<path id="SVGCleanerId_1_1_" style="fill:#FAEDBD;" d="M298.832,70.621h-85.663c-4.901,0-9.582,2.037-12.922,5.624    c-3.34,3.587-5.039,8.401-4.689,13.289l15.133,211.862c0.66,9.239,8.348,16.398,17.611,16.397h55.398    c9.263,0,16.95-7.158,17.61-16.397l15.133-211.862c0.349-4.888-1.349-9.702-4.689-13.289    C308.413,72.658,303.733,70.621,298.832,70.621z"/>
	</g>
</g>
<g>
</g>
<g>
</g>
<g>
</g>
<g>
</g>
<g>
</g>
<g>
</g>
<g>
</g>
<g>
</g>
<g>
</g>
<g>
</g>
<g>
</g>
<g>
</g>
<g>
</g>
<g>
</g>
<g>
</g>
</svg>